<svg width="330" height="330" xmlns="http://www.w3.org/2000/svg" xmlns:xlink="http://www.w3.org/1999/xlink" overflow="hidden"><defs><clipPath id="clip0"><rect x="475" y="195" width="330" height="330"/></clipPath></defs><g clip-path="url(#clip0)" transform="translate(-475 -195)"><path d="M592.251 229.764C602.034 231.347 608.038 244.541 605.66 259.234 603.283 273.927 593.426 284.555 583.643 282.972 573.86 281.389 567.857 268.195 570.234 253.502 572.611 238.809 582.468 228.181 592.251 229.764Z" fill="#FFFFFF"/><path d="M626.478 276.029C635.628 279.834 639.187 292.198 634.427 303.645 629.667 315.092 618.39 321.286 609.24 317.481 600.089 313.676 596.53 301.312 601.29 289.865 606.051 278.418 617.327 272.224 626.478 276.029Z" fill="#FFFFFF"/><path d="M558.185 253.488C560.562 268.181 554.559 281.375 544.776 282.958 534.993 284.541 525.135 273.913 522.758 259.22 520.381 244.527 526.385 231.333 536.167 229.75 545.95 228.167 555.808 238.795 558.185 253.488Z" fill="#FFFFFF"/><path d="M527.122 289.862C531.882 301.309 528.323 313.673 519.173 317.479 510.023 321.284 498.746 315.089 493.986 303.642 489.226 292.196 492.785 279.831 501.935 276.026 511.085 272.221 522.362 278.416 527.122 289.862Z" fill="#FFFFFF"/><path d="M565.612 373.303C570.72 373.257 575.725 374.742 579.981 377.566 581.275 378.372 582.631 379.074 584.037 379.663 595.183 384.641 608.255 379.641 613.233 368.495 613.759 367.318 614.181 366.097 614.494 364.847 616.299 358.09 615.59 350.908 612.5 344.634 610.545 340.61 607.7 337.084 604.181 334.322 601.646 332.416 599.339 330.225 597.306 327.791L594.9 324.8C591.206 320.338 588.573 315.096 587.2 309.469 586.195 304.901 584.042 300.666 580.944 297.163 573.125 287.812 559.207 286.571 549.857 294.389 548.853 295.23 547.924 296.158 547.084 297.163 544.009 300.681 541.858 304.911 540.828 309.469 539.455 315.096 536.822 320.338 533.128 324.8L530.756 327.791C528.722 330.223 526.415 332.415 523.881 334.322 520.363 337.076 517.527 340.605 515.597 344.634 512.468 350.895 511.734 358.083 513.534 364.847 515.217 371.142 519.507 376.419 525.325 379.353 531.213 382.134 538.013 382.247 543.991 379.663 545.308 379.139 546.573 378.494 547.772 377.737 551.812 375.155 556.457 373.674 561.247 373.441Z" fill="#FFFFFF"/><path d="M746.95 343.194C756.733 344.777 762.737 357.971 760.359 372.664 757.982 387.357 748.125 397.985 738.342 396.403 728.559 394.82 722.555 381.626 724.932 366.933 727.31 352.24 737.167 341.612 746.95 343.194Z" fill="#FFFFFF"/><path d="M781.162 389.468C790.313 393.274 793.872 405.638 789.112 417.085 784.351 428.531 773.075 434.726 763.924 430.921 754.774 427.116 751.215 414.751 755.975 403.305 760.735 391.858 772.012 385.663 781.162 389.468Z" fill="#FFFFFF"/><path d="M712.882 366.924C715.259 381.617 709.256 394.811 699.473 396.394 689.69 397.977 679.832 387.349 677.455 372.656 675.078 357.962 681.082 344.768 690.864 343.186 700.647 341.603 710.505 352.231 712.882 366.924Z" fill="#FFFFFF"/><path d="M681.781 403.305C686.541 414.752 682.982 427.116 673.832 430.921 664.681 434.727 653.404 428.532 648.644 417.085 643.884 405.638 647.443 393.274 656.594 389.469 665.744 385.664 677.021 391.859 681.781 403.305Z" fill="#FFFFFF"/><path d="M720.3 486.741C725.408 486.695 730.412 488.179 734.669 491.003 735.962 491.81 737.319 492.511 738.725 493.1 749.871 498.079 762.942 493.079 767.921 481.933 768.447 480.756 768.868 479.535 769.181 478.284 770.986 471.528 770.278 464.346 767.188 458.072 765.233 454.048 762.388 450.521 758.869 447.759 756.334 445.854 754.027 443.662 751.994 441.228L749.588 438.237C745.893 433.776 743.26 428.534 741.888 422.906 740.882 418.339 738.729 414.104 735.631 410.6 727.813 401.25 713.895 400.008 704.545 407.827 703.54 408.667 702.612 409.595 701.772 410.6 698.696 414.119 696.546 418.348 695.516 422.906 694.143 428.534 691.51 433.776 687.816 438.237L685.444 441.228C683.409 443.661 681.103 445.852 678.569 447.759 675.05 450.513 672.215 454.042 670.284 458.072 667.156 464.333 666.422 471.521 668.222 478.284 671.767 490.441 684.495 497.422 696.652 493.877 698.752 493.265 700.754 492.355 702.597 491.175 706.637 488.592 711.282 487.111 716.072 486.878Z" fill="#FFFFFF"/></g></svg>